<svg xmlns:xlink="http://www.w3.org/1999/xlink" xmlns="http://www.w3.org/2000/svg" id="179892001" viewBox="0 0 370.0563380281691 85.31337895294587" height="85.31337895294587" width="370.0563380281691" style="width: 370.056px; height: 85.3134px; position: absolute; top: 50%; left: 50%; transform: translate(-50%, -50%) scale(0.637606); z-index: 0; cursor: pointer; overflow: visible;"><defs id="SvgjsDefs3614"></defs><g id="SvgjsG3615" featurekey="symbolFeature-0" transform="matrix(0.8531337895294587,0,0,0.8531337895294587,-5.685283602714337,0)" fill="#4716F8"><g xmlns="http://www.w3.org/2000/svg" fill="#4716F8"><polygon fill="#4716F8" points="53.954,52.16 53.954,100 93.337,77.072 93.337,30.328  "></polygon><polygon fill="#4716F8" points="6.664,77.072 46.047,100 46.047,52.16 6.664,30.328  "></polygon><polygon fill="#4716F8" points="50.105,0 10.213,23.144 50.079,45.237 50.105,45.222 89.999,23.144  "></polygon></g></g><g id="SvgjsG3616" featurekey="nameFeature-0" transform="matrix(2.3075073292813912,0,0,2.3075073292813912,94,-16.120982263269998)" fill="#FFFFFF"><path d="M5.36 39.92 c-2.96 0 -5.36 -2.4 -5.36 -5.36 l0 -17.76 c0 -2.96 2.4 -5.36 5.36 -5.36 s5.36 2.4 5.36 5.36 l0 1.6 l-3.8 0 l0 -1.6 c0 -0.84 -0.72 -1.56 -1.56 -1.56 s-1.56 0.72 -1.56 1.56 l0 17.76 c0 0.84 0.72 1.56 1.56 1.56 s1.56 -0.72 1.56 -1.56 l0 -2.56 l3.8 0 l0 2.56 c0 2.96 -2.4 5.36 -5.36 5.36 z M18.906000000000002 11.440000000000001 l3.8 0 l0 28.52 l-3.8 0 l0 -15.08 l-3.4 0 l0 15.08 l-3.8 0 l0 -28.52 l3.8 0 l0 9.68 l3.4 0 l0 -9.68 z M33.652 40 l-1.44 -9.88 l-4.04 0 l-1.32 9.88 l-3.84 0 l4.32 -28.6 l5.16 0 l5 28.6 l-3.84 0 z M28.692 26.32 l2.96 0 l-1.52 -10.4 z M48.278000000000006 11.36 l0 3.84 l-4.76 0 l0 24.84 l-3.84 0 l0 -24.84 l-5.24 0 l0 -3.84 l13.84 0 z M63.104 11.36 l0 3.84 l-4.76 0 l0 24.84 l-3.84 0 l0 -24.84 l-5.24 0 l0 -3.84 l13.84 0 z M73.41 24.92 l-5.52 0 l0 11.28 l5.56 0 l0 3.8 l-9.36 0 l0 -28.56 l9.36 0 l0 3.8 l-5.56 0 l0 5.88 l5.52 0 l0 3.8 z M85.39600000000002 40.08 l-4.08 0 l-2.2 -6.04 l-0.88 0 l0 6.04 l-3.8 0 l0 -28.64 l5.96 0 c2.64 0 4.76 2.12 4.76 4.76 l0 13.08 c0 1.72 -0.88 3.2 -2.24 4.04 z M78.236 15.239999999999998 l0 15 l2.16 0 c0.52 0 0.96 -0.44 0.96 -0.96 l0 -13.08 c0 -0.52 -0.44 -0.96 -0.96 -0.96 l-2.16 0 z M95.702 23.04 c0.88 0.88 1.44 2.08 1.44 3.4 l0 8.76 c0 2.64 -2.16 4.8 -4.8 4.8 l-5.92 0 l-0.04 -28.48 l5.28 0 c2.92 0.12 4.64 2.92 4.6 5.56 l-0.04 3.96 c0 0.72 -0.2 1.4 -0.52 2 z M92.342 36.16 c0.56 0 1 -0.44 1 -0.96 l-0.04 -8.76 c0 -0.56 -0.44 -0.96 -0.96 -0.96 l-2.12 0 l0 10.68 l2.12 0 z M90.182 15.32 l0 6.32 l1.6 0 c0.32 0 0.64 -0.28 0.64 -0.64 l0.04 -3.96 c0 -0.8 -0.4 -1.68 -0.96 -1.72 l-1.32 0 z M103.528 40.04 c-3 0 -5.4 -2.44 -5.4 -5.4 l0 -17.96 c0 -2.96 2.4 -5.36 5.4 -5.36 c2.96 0 5.36 2.4 5.36 5.36 l0 17.96 c0 2.96 -2.4 5.4 -5.36 5.4 z M103.528 15.120000000000001 c-0.88 0 -1.56 0.72 -1.56 1.56 l0 17.96 c0 0.88 0.68 1.56 1.56 1.56 c0.84 0 1.56 -0.68 1.56 -1.56 l0 -17.96 c0 -0.84 -0.72 -1.56 -1.56 -1.56 z M119.634 11.440000000000001 l-3.8 14.32 l3.76 14.24 l-3.4 0 l-2.08 -7.84 l-2.04 7.84 l-3.4 0 l3.76 -14.24 l-3.8 -14.32 l3.4 0 l2.08 7.88 l2.12 -7.88 l3.4 0 z" fill="#FFFFFF"></path></g></svg>