<svg xmlns:xlink="http://www.w3.org/1999/xlink" xmlns="http://www.w3.org/2000/svg" id="179913774" viewBox="0 0 369.6101694915254 62.45885091766638" height="62.45885091766638" width="369.6101694915254" style="width: 369.61px; height: 62.4589px; position: absolute; top: 50%; left: 50%; transform: translate(-50%, -50%) scale(0.638375); z-index: 0; cursor: pointer; overflow: visible;"><defs id="SvgjsDefs3604"></defs><g id="SvgjsG3605" featurekey="symbolFeature-0" transform="matrix(0.6939872324185153,0,0,0.6939872324185153,-8.00444901403968,-3.469936162092577)" fill="#FFFFFF"><path xmlns="http://www.w3.org/2000/svg" d="M88.465,26.848L50,5L11.534,26.85l0.001,46.3L50,95l38.466-21.85L88.465,26.848z M19.434,68.554l-0.002-32.342l26.619,16.02  l0.001,31.442L19.434,68.554z M23.237,29.284L50,14.083l26.76,15.2L50,45.391L23.237,29.284z M53.949,83.674V52.232l26.616-16.02  l0,32.34L53.949,83.674z" fill="#FFFFFF"></path></g><g id="SvgjsG3606" featurekey="nameFeature-0" transform="matrix(1.538444935839966,0,0,1.538444935839966,70.35695096640715,-7.383680558478263)" fill="#FFFFFF"><path d="M16.152 40.39063 c-8.3008 0 -14.434 -5.6445 -14.434 -14.512 s6.1328 -14.492 14.434 -14.492 c6.2891 0 11.328 3.2227 13.34 8.5742 l-5.4688 1.9922 c-1.25 -3.2813 -4.2383 -5.1758 -7.8711 -5.1758 c-4.8633 0 -8.5938 3.3984 -8.5938 9.1016 s3.7305 9.1211 8.5938 9.1211 c3.6328 0 6.6211 -1.9141 7.8711 -5.1953 l5.4688 1.9922 c-2.0117 5.3516 -7.0508 8.5938 -13.34 8.5938 z M42.8177890625 19.531 c4.4922 0 7.1875 2.5 7.1875 7.5195 l0 12.949 l-5.6445 0 l0 -12.031 c0 -2.9492 -1.6406 -3.9258 -3.6523 -3.9258 c-2.0898 0 -4.375 1.0352 -4.4141 4.8828 l0 11.074 l-5.625 0 l0 -30 l5.625 0 l0 12.324 c1.4258 -1.7383 3.6719 -2.793 6.5234 -2.793 z M68.994140625 34.5508 c0 2.4609 0.23438 4.0234 0.48828 4.9023 l0 0.54688 l-5.2539 0 l-0.44922 -2.1875 c-1.5039 1.8164 -4.1016 2.5781 -6.4453 2.5781 c-3.1641 0 -6.25 -1.4063 -6.25 -5.5859 c0 -4.1602 3.1055 -5.5664 7.3047 -6.4844 l3.3008 -0.74219 c1.4258 -0.33203 1.9336 -0.82031 1.9336 -1.6406 c0 -1.9727 -1.7969 -2.5195 -3.3789 -2.5195 c-2.0313 0 -3.5742 0.80078 -3.9258 3.0664 l-4.9805 -0.89844 c0.83984 -4.1602 3.8867 -6.0547 9.2188 -6.0547 c4.0234 0 8.4375 1.1914 8.4375 7.2461 l0 7.7734 z M59.091840625 36.582 c2.6758 0 4.8242 -1.7773 4.8242 -5.7617 l-4.7656 1.3477 c-1.5625 0.37109 -2.6953 0.91797 -2.6953 2.2656 c0 1.4453 1.1914 2.1484 2.6367 2.1484 z M79.0579921875 40 c-3.9063 0 -6.1328 -2.2656 -6.1328 -6.2695 l0 -9.4922 l-3.9453 0 l0 -4.3164 l1.2695 0 c2.1289 0 3.3008 -0.82031 3.3008 -3.8281 l0 -2.6563 l5.0781 0 l0 6.4844 l4.1406 0 l0 4.3164 l-4.1406 0 l0 8.8867 c0 1.7969 0.87891 2.5977 2.3242 2.5977 l1.8164 0 l0 4.2773 l-3.7109 0 z M91.719125 40 c-3.9063 0 -6.1328 -2.2656 -6.1328 -6.2695 l0 -9.4922 l-3.9453 0 l0 -4.3164 l1.2695 0 c2.1289 0 3.3008 -0.82031 3.3008 -3.8281 l0 -2.6563 l5.0781 0 l0 6.4844 l4.1406 0 l0 4.3164 l-4.1406 0 l0 8.8867 c0 1.7969 0.87891 2.5977 2.3242 2.5977 l1.8164 0 l0 4.2773 l-3.7109 0 z M115.7862578125 29.668 l-0.058594 1.3477 l-14.883 0 c0.23438 3.3398 2.4609 4.9414 5.1367 4.9414 c2.0117 0 3.5742 -0.9375 4.3359 -2.7148 l5.1563 0.76172 c-1.3281 4.0625 -4.9414 6.3867 -9.4531 6.3867 c-6.4844 0 -10.723 -3.8281 -10.723 -10.43 s4.3555 -10.469 10.547 -10.469 c5.6836 0 9.9219 3.1445 9.9414 10.176 z M105.8842578125 23.477 c-2.5586 0 -4.3359 1.1914 -4.8828 3.8672 l9.2188 0 c-0.29297 -2.5586 -2.0313 -3.8672 -4.3359 -3.8672 z M122.568378125 23.105 c1.0156 -1.7773 3.6523 -3.418 6.5625 -3.418 l0 5.0195 c-4.2578 0 -6.2891 1.25 -6.2891 5.5078 l0 9.7852 l-5.6641 0 l0 -20.078 l5.3906 0 l0 3.1836 z M141.3427421875 19.531 c5.2734 0 9.6484 3.9063 9.6484 10.469 s-4.375 10.469 -9.6484 10.469 c-2.7734 0 -5.1953 -1.1133 -6.3281 -3.0859 l-0.13672 2.6172 l-5.332 0 l0 -30 l5.625 0 l0 12.363 c1.1719 -1.8164 3.5156 -2.832 6.1719 -2.832 z M140.0337421875 35.8008 c2.9883 0 5.332 -2.207 5.332 -5.8008 c0 -3.6133 -2.3438 -5.8203 -5.332 -5.8203 c-2.9688 0 -5.3125 2.3047 -5.3125 5.8203 s2.3242 5.8008 5.3125 5.8008 z M161.69959375 40.39063 c-6.3867 0 -10.996 -3.8867 -10.996 -10.449 c0 -6.5234 4.5703 -10.41 10.996 -10.41 c6.4648 0 11.016 3.8867 11.016 10.41 c0 6.5625 -4.5703 10.449 -11.016 10.449 z M161.64059375 35.918 c3.2617 0 5.4883 -2.3828 5.4883 -5.9766 s-2.2266 -5.9766 -5.4883 -5.9766 c-3.1445 0 -5.3516 2.3828 -5.3516 5.9766 s2.207 5.9766 5.3516 5.9766 z M171.2548828125 40 l8.2422 -10.059 l-8.2422 -10.02 l7.0313 0 l4.6094 6.3281 l4.6484 -6.3281 l6.9727 0 l-8.2617 10.039 l8.2617 10.039 l-6.9727 0 l-4.6094 -6.2891 l-4.6289 6.2891 l-7.0508 0 z" fill="#FFFFFF"></path></g></svg>